<svg xmlns="http://www.w3.org/2000/svg" viewBox="0 0 1920 950" width="100%" height="100%">
  <defs>
    <!-- Import Outfit font from Google Fonts -->
    <style type="text/css">
      @import url('https://fonts.googleapis.com/css2?family=Outfit:wght@300;400;600;700&amp;display=swap');
      text {
        font-family: 'Outfit', -apple-system, BlinkMacSystemFont, "Segoe UI", Roboto, sans-serif;
      }
    </style>
    
    <!-- Background Gradient -->
    <linearGradient id="bg-grad" x1="0%" y1="0%" x2="0%" y2="100%">
      <stop offset="0%" stop-color="#0b0f19" />
      <stop offset="100%" stop-color="#161f30" />
    </linearGradient>
    
    <!-- Ocean Water Gradient -->
    <linearGradient id="water-grad" x1="0%" y1="0%" x2="0%" y2="100%">
      <stop offset="0%" stop-color="#00d2ff" stop-opacity="0.12" />
      <stop offset="100%" stop-color="#0066ff" stop-opacity="0.25" />
    </linearGradient>
    
    <!-- Ground Gradient -->
    <linearGradient id="ground-grad" x1="0%" y1="0%" x2="0%" y2="100%">
      <stop offset="0%" stop-color="#181d28" />
      <stop offset="100%" stop-color="#090a0f" />
    </linearGradient>
    
    <!-- Glow Filters -->
    <filter id="glow-cyan" x="-20%" y="-20%" width="140%" height="140%">
      <feGaussianBlur stdDeviation="6" result="blur" />
      <feMerge>
        <feMergeNode in="blur" />
        <feMergeNode in="SourceGraphic" />
      </feMerge>
    </filter>
    <filter id="glow-magenta" x="-20%" y="-20%" width="140%" height="140%">
      <feGaussianBlur stdDeviation="6" result="blur" />
      <feMerge>
        <feMergeNode in="blur" />
        <feMergeNode in="SourceGraphic" />
      </feMerge>
    </filter>
    <filter id="glow-conduit" x="-50%" y="-50%" width="200%" height="200%">
      <feGaussianBlur stdDeviation="8" result="blur" />
      <feColorMatrix type="matrix" values="0 0 0 0 0.0   0 0 0 0 1.0   0 0 0 0 1.0  0 0 0 0.8 0" />
      <feMerge>
        <feMergeNode />
        <feMergeNode in="SourceGraphic" />
      </feMerge>
    </filter>
    
    <!-- Overlap Region Fill Gradient -->
    <linearGradient id="overlap-grad" x1="0%" y1="0%" x2="0%" y2="100%">
      <stop offset="0%" stop-color="#ff00ff" stop-opacity="0.08" />
      <stop offset="100%" stop-color="#ab00ff" stop-opacity="0.18" />
    </linearGradient>
  </defs>

  <!-- Background -->
  <rect width="100%" height="100%" fill="url(#bg-grad)" />

  <!-- Main Dashboard Header -->
  <g transform="translate(960, 65)" text-anchor="middle">
    <text font-size="28" font-weight="700" fill="#ffffff" letter-spacing="3">CONDUIT EFFECT RANGE ANALYSIS</text>
    <text font-size="14" font-weight="300" fill="#6c7d9c" letter-spacing="1" dy="22">Side-View Vertical Cross-Section Slice &amp; Intersection Profile</text>
  </g>

  <!-- ==================== PANEL 1 ==================== -->
  <g id="panel-1">
    <!-- Panel Header -->
    <g transform="translate(500, 115)" text-anchor="middle">
      <text font-size="18" font-weight="600" fill="#00e5ff" letter-spacing="1">CLOSE COUPLING SLICE (ADJACENT)</text>
      <text font-size="12" font-weight="300" fill="#a0aec0" dy="18">Cross section along Z-axis (or X-axis) | Separation: 131 blocks</text>
    </g>

    <!-- Panel Border / Clipping Area Container -->
    <g>
      <!-- Panel Background Mask / Base Grid Area -->
      <rect x="80" y="150" width="840" height="630" fill="#0d1321" rx="8" stroke="#1d263b" stroke-width="1.5" />
      
      <!-- Subtle internal vertical grid lines for depth/scale -->
      <line x1="500" y1="150" x2="500" y2="780" stroke="#161f33" stroke-width="1" />
      <line x1="290" y1="150" x2="290" y2="780" stroke="#161f33" stroke-width="1" />
      <line x1="710" y1="150" x2="710" y2="780" stroke="#161f33" stroke-width="1" />

      <!-- Water Mass -->
      <path d="M 80.00 402.40 L 920.00 402.40 L 920.00 510.90 L 915.00 512.26 L 910.00 512.11 L 905.00 510.77 L 900.00 508.71 L 895.00 506.46 L 890.00 504.55 L 885.00 503.38 L 880.00 503.18 L 875.00 503.96 L 870.00 505.49 L 865.00 507.39 L 860.00 509.14 L 855.00 510.21 L 850.00 510.13 L 845.00 508.60 L 840.00 505.50 L 835.00 500.97 L 830.00 495.37 L 825.00 489.22 L 820.00 483.14 L 815.00 477.73 L 810.00 473.52 L 805.00 470.84 L 800.00 469.82 L 795.00 470.33 L 790.00 472.04 L 785.00 474.48 L 780.00 477.08 L 775.00 479.34 L 770.00 480.84 L 765.00 481.37 L 760.00 480.91 L 755.00 479.70 L 750.00 478.12 L 745.00 476.68 L 740.00 475.91 L 735.00 476.26 L 730.00 478.04 L 725.00 481.32 L 720.00 485.97 L 715.00 491.61 L 710.00 497.72 L 705.00 503.67 L 700.00 508.87 L 695.00 512.80 L 690.00 515.14 L 685.00 515.79 L 680.00 514.89 L 675.00 512.77 L 670.00 509.95 L 665.00 506.97 L 660.00 504.36 L 655.00 502.53 L 650.00 501.69 L 645.00 501.85 L 640.00 502.77 L 635.00 504.07 L 630.00 505.24 L 625.00 505.76 L 620.00 505.17 L 615.00 503.21 L 610.00 499.80 L 605.00 495.09 L 600.00 489.46 L 595.00 483.45 L 590.00 477.68 L 585.00 472.75 L 580.00 469.15 L 575.00 467.18 L 570.00 466.94 L 565.00 468.27 L 560.00 470.80 L 555.00 474.02 L 550.00 477.38 L 545.00 480.33 L 540.00 482.48 L 535.00 483.61 L 530.00 483.73 L 525.00 483.06 L 520.00 482.00 L 515.00 481.06 L 510.00 480.75 L 505.00 481.51 L 500.00 483.60 L 495.00 487.09 L 490.00 491.80 L 485.00 497.35 L 480.00 503.21 L 475.00 508.74 L 470.00 513.36 L 465.00 516.60 L 460.00 518.15 L 455.00 517.95 L 450.00 516.18 L 445.00 513.22 L 440.00 509.60 L 435.00 505.87 L 430.00 502.59 L 425.00 500.14 L 420.00 498.75 L 415.00 498.39 L 410.00 498.84 L 405.00 499.70 L 400.00 500.46 L 395.00 500.62 L 390.00 499.75 L 385.00 497.58 L 380.00 494.08 L 375.00 489.42 L 370.00 484.00 L 365.00 478.36 L 360.00 473.11 L 355.00 468.84 L 350.00 466.01 L 345.00 464.90 L 340.00 465.55 L 335.00 467.77 L 330.00 471.16 L 325.00 475.18 L 320.00 479.26 L 315.00 482.86 L 310.00 485.57 L 305.00 487.20 L 300.00 487.75 L 295.00 487.47 L 290.00 486.77 L 285.00 486.13 L 280.00 486.07 L 275.00 487.00 L 270.00 489.18 L 265.00 492.64 L 260.00 497.19 L 255.00 502.43 L 250.00 507.82 L 245.00 512.74 L 240.00 516.62 L 235.00 519.01 L 230.00 519.66 L 225.00 518.54 L 220.00 515.87 L 215.00 512.05 L 210.00 507.65 L 205.00 503.23 L 200.00 499.36 L 195.00 496.41 L 190.00 494.60 L 185.00 493.89 L 180.00 494.04 L 175.00 494.66 L 170.00 495.22 L 165.00 495.24 L 160.00 494.31 L 155.00 492.17 L 150.00 488.80 L 145.00 484.42 L 140.00 479.40 L 135.00 474.32 L 130.00 469.76 L 125.00 466.30 L 120.00 464.36 L 115.00 464.18 L 110.00 465.77 L 105.00 468.90 L 100.00 473.12 L 95.00 477.89 L 90.00 482.61 L 85.00 486.73 L 80.00 489.87 Z" fill="url(#water-grad)" />

      <!-- Ground Mass -->
      <path d="M 80.00 489.87 L 85.00 486.73 L 90.00 482.61 L 95.00 477.89 L 100.00 473.12 L 105.00 468.90 L 110.00 465.77 L 115.00 464.18 L 120.00 464.36 L 125.00 466.30 L 130.00 469.76 L 135.00 474.32 L 140.00 479.40 L 145.00 484.42 L 150.00 488.80 L 155.00 492.17 L 160.00 494.31 L 165.00 495.24 L 170.00 495.22 L 175.00 494.66 L 180.00 494.04 L 185.00 493.89 L 190.00 494.60 L 195.00 496.41 L 200.00 499.36 L 205.00 503.23 L 210.00 507.65 L 215.00 512.05 L 220.00 515.87 L 225.00 518.54 L 230.00 519.66 L 235.00 519.01 L 240.00 516.62 L 245.00 512.74 L 250.00 507.82 L 255.00 502.43 L 260.00 497.19 L 265.00 492.64 L 270.00 489.18 L 275.00 487.00 L 280.00 486.07 L 285.00 486.13 L 290.00 486.77 L 295.00 487.47 L 300.00 487.75 L 305.00 487.20 L 310.00 485.57 L 315.00 482.86 L 320.00 479.26 L 325.00 475.18 L 330.00 471.16 L 335.00 467.77 L 340.00 465.55 L 345.00 464.90 L 350.00 466.01 L 355.00 468.84 L 360.00 473.11 L 365.00 478.36 L 370.00 484.00 L 375.00 489.42 L 380.00 494.08 L 385.00 497.58 L 390.00 499.75 L 395.00 500.62 L 400.00 500.46 L 405.00 499.70 L 410.00 498.84 L 415.00 498.39 L 420.00 498.75 L 425.00 500.14 L 430.00 502.59 L 435.00 505.87 L 440.00 509.60 L 445.00 513.22 L 450.00 516.18 L 455.00 517.95 L 460.00 518.15 L 465.00 516.60 L 470.00 513.36 L 475.00 508.74 L 480.00 503.21 L 485.00 497.35 L 490.00 491.80 L 495.00 487.09 L 500.00 483.60 L 505.00 481.51 L 510.00 480.75 L 515.00 481.06 L 520.00 482.00 L 525.00 483.06 L 530.00 483.73 L 535.00 483.61 L 540.00 482.48 L 545.00 480.33 L 550.00 477.38 L 555.00 474.02 L 560.00 470.80 L 565.00 468.27 L 570.00 466.94 L 575.00 467.18 L 580.00 469.15 L 585.00 472.75 L 590.00 477.68 L 595.00 483.45 L 600.00 489.46 L 605.00 495.09 L 610.00 499.80 L 615.00 503.21 L 620.00 505.17 L 625.00 505.76 L 630.00 505.24 L 635.00 504.07 L 640.00 502.77 L 645.00 501.85 L 650.00 501.69 L 655.00 502.53 L 660.00 504.36 L 665.00 506.97 L 670.00 509.95 L 675.00 512.77 L 680.00 514.89 L 685.00 515.79 L 690.00 515.14 L 695.00 512.80 L 700.00 508.87 L 705.00 503.67 L 710.00 497.72 L 715.00 491.61 L 720.00 485.97 L 725.00 481.32 L 730.00 478.04 L 735.00 476.26 L 740.00 475.91 L 745.00 476.68 L 750.00 478.12 L 755.00 479.70 L 760.00 480.91 L 765.00 481.37 L 770.00 480.84 L 775.00 479.34 L 780.00 477.08 L 785.00 474.48 L 790.00 472.04 L 795.00 470.33 L 800.00 469.82 L 805.00 470.84 L 810.00 473.52 L 815.00 477.73 L 820.00 483.14 L 825.00 489.22 L 830.00 495.37 L 835.00 500.97 L 840.00 505.50 L 845.00 508.60 L 850.00 510.13 L 855.00 510.21 L 860.00 509.14 L 865.00 507.39 L 870.00 505.49 L 875.00 503.96 L 880.00 503.18 L 885.00 503.38 L 890.00 504.55 L 895.00 506.46 L 900.00 508.71 L 905.00 510.77 L 910.00 512.11 L 915.00 512.26 L 920.00 510.90 L 920.00 780.00 L 80.00 780.00 Z" fill="url(#ground-grad)" />
      
      <!-- Seafloor Line -->
      <path d="M 80.00 489.87 L 85.00 486.73 L 90.00 482.61 L 95.00 477.89 L 100.00 473.12 L 105.00 468.90 L 110.00 465.77 L 115.00 464.18 L 120.00 464.36 L 125.00 466.30 L 130.00 469.76 L 135.00 474.32 L 140.00 479.40 L 145.00 484.42 L 150.00 488.80 L 155.00 492.17 L 160.00 494.31 L 165.00 495.24 L 170.00 495.22 L 175.00 494.66 L 180.00 494.04 L 185.00 493.89 L 190.00 494.60 L 195.00 496.41 L 200.00 499.36 L 205.00 503.23 L 210.00 507.65 L 215.00 512.05 L 220.00 515.87 L 225.00 518.54 L 230.00 519.66 L 235.00 519.01 L 240.00 516.62 L 245.00 512.74 L 250.00 507.82 L 255.00 502.43 L 260.00 497.19 L 265.00 492.64 L 270.00 489.18 L 275.00 487.00 L 280.00 486.07 L 285.00 486.13 L 290.00 486.77 L 295.00 487.47 L 300.00 487.75 L 305.00 487.20 L 310.00 485.57 L 315.00 482.86 L 320.00 479.26 L 325.00 475.18 L 330.00 471.16 L 335.00 467.77 L 340.00 465.55 L 345.00 464.90 L 350.00 466.01 L 355.00 468.84 L 360.00 473.11 L 365.00 478.36 L 370.00 484.00 L 375.00 489.42 L 380.00 494.08 L 385.00 497.58 L 390.00 499.75 L 395.00 500.62 L 400.00 500.46 L 405.00 499.70 L 410.00 498.84 L 415.00 498.39 L 420.00 498.75 L 425.00 500.14 L 430.00 502.59 L 435.00 505.87 L 440.00 509.60 L 445.00 513.22 L 450.00 516.18 L 455.00 517.95 L 460.00 518.15 L 465.00 516.60 L 470.00 513.36 L 475.00 508.74 L 480.00 503.21 L 485.00 497.35 L 490.00 491.80 L 495.00 487.09 L 500.00 483.60 L 505.00 481.51 L 510.00 480.75 L 515.00 481.06 L 520.00 482.00 L 525.00 483.06 L 530.00 483.73 L 535.00 483.61 L 540.00 482.48 L 545.00 480.33 L 550.00 477.38 L 555.00 474.02 L 560.00 470.80 L 565.00 468.27 L 570.00 466.94 L 575.00 467.18 L 580.00 469.15 L 585.00 472.75 L 590.00 477.68 L 595.00 483.45 L 600.00 489.46 L 605.00 495.09 L 610.00 499.80 L 615.00 503.21 L 620.00 505.17 L 625.00 505.76 L 630.00 505.24 L 635.00 504.07 L 640.00 502.77 L 645.00 501.85 L 650.00 501.69 L 655.00 502.53 L 660.00 504.36 L 665.00 506.97 L 670.00 509.95 L 675.00 512.77 L 680.00 514.89 L 685.00 515.79 L 690.00 515.14 L 695.00 512.80 L 700.00 508.87 L 705.00 503.67 L 710.00 497.72 L 715.00 491.61 L 720.00 485.97 L 725.00 481.32 L 730.00 478.04 L 735.00 476.26 L 740.00 475.91 L 745.00 476.68 L 750.00 478.12 L 755.00 479.70 L 760.00 480.91 L 765.00 481.37 L 770.00 480.84 L 775.00 479.34 L 780.00 477.08 L 785.00 474.48 L 790.00 472.04 L 795.00 470.33 L 800.00 469.82 L 805.00 470.84 L 810.00 473.52 L 815.00 477.73 L 820.00 483.14 L 825.00 489.22 L 830.00 495.37 L 835.00 500.97 L 840.00 505.50 L 845.00 508.60 L 850.00 510.13 L 855.00 510.21 L 860.00 509.14 L 865.00 507.39 L 870.00 505.49 L 875.00 503.96 L 880.00 503.18 L 885.00 503.38 L 890.00 504.55 L 895.00 506.46 L 900.00 508.71 L 905.00 510.77 L 910.00 512.11 L 915.00 512.26 L 920.00 510.90" fill="none" stroke="#2c3e50" stroke-width="3" />
      <path d="M 80.00 489.87 L 85.00 486.73 L 90.00 482.61 L 95.00 477.89 L 100.00 473.12 L 105.00 468.90 L 110.00 465.77 L 115.00 464.18 L 120.00 464.36 L 125.00 466.30 L 130.00 469.76 L 135.00 474.32 L 140.00 479.40 L 145.00 484.42 L 150.00 488.80 L 155.00 492.17 L 160.00 494.31 L 165.00 495.24 L 170.00 495.22 L 175.00 494.66 L 180.00 494.04 L 185.00 493.89 L 190.00 494.60 L 195.00 496.41 L 200.00 499.36 L 205.00 503.23 L 210.00 507.65 L 215.00 512.05 L 220.00 515.87 L 225.00 518.54 L 230.00 519.66 L 235.00 519.01 L 240.00 516.62 L 245.00 512.74 L 250.00 507.82 L 255.00 502.43 L 260.00 497.19 L 265.00 492.64 L 270.00 489.18 L 275.00 487.00 L 280.00 486.07 L 285.00 486.13 L 290.00 486.77 L 295.00 487.47 L 300.00 487.75 L 305.00 487.20 L 310.00 485.57 L 315.00 482.86 L 320.00 479.26 L 325.00 475.18 L 330.00 471.16 L 335.00 467.77 L 340.00 465.55 L 345.00 464.90 L 350.00 466.01 L 355.00 468.84 L 360.00 473.11 L 365.00 478.36 L 370.00 484.00 L 375.00 489.42 L 380.00 494.08 L 385.00 497.58 L 390.00 499.75 L 395.00 500.62 L 400.00 500.46 L 405.00 499.70 L 410.00 498.84 L 415.00 498.39 L 420.00 498.75 L 425.00 500.14 L 430.00 502.59 L 435.00 505.87 L 440.00 509.60 L 445.00 513.22 L 450.00 516.18 L 455.00 517.95 L 460.00 518.15 L 465.00 516.60 L 470.00 513.36 L 475.00 508.74 L 480.00 503.21 L 485.00 497.35 L 490.00 491.80 L 495.00 487.09 L 500.00 483.60 L 505.00 481.51 L 510.00 480.75 L 515.00 481.06 L 520.00 482.00 L 525.00 483.06 L 530.00 483.73 L 535.00 483.61 L 540.00 482.48 L 545.00 480.33 L 550.00 477.38 L 555.00 474.02 L 560.00 470.80 L 565.00 468.27 L 570.00 466.94 L 575.00 467.18 L 580.00 469.15 L 585.00 472.75 L 590.00 477.68 L 595.00 483.45 L 600.00 489.46 L 605.00 495.09 L 610.00 499.80 L 615.00 503.21 L 620.00 505.17 L 625.00 505.76 L 630.00 505.24 L 635.00 504.07 L 640.00 502.77 L 645.00 501.85 L 650.00 501.69 L 655.00 502.53 L 660.00 504.36 L 665.00 506.97 L 670.00 509.95 L 675.00 512.77 L 680.00 514.89 L 685.00 515.79 L 690.00 515.14 L 695.00 512.80 L 700.00 508.87 L 705.00 503.67 L 710.00 497.72 L 715.00 491.61 L 720.00 485.97 L 725.00 481.32 L 730.00 478.04 L 735.00 476.26 L 740.00 475.91 L 745.00 476.68 L 750.00 478.12 L 755.00 479.70 L 760.00 480.91 L 765.00 481.37 L 770.00 480.84 L 775.00 479.34 L 780.00 477.08 L 785.00 474.48 L 790.00 472.04 L 795.00 470.33 L 800.00 469.82 L 805.00 470.84 L 810.00 473.52 L 815.00 477.73 L 820.00 483.14 L 825.00 489.22 L 830.00 495.37 L 835.00 500.97 L 840.00 505.50 L 845.00 508.60 L 850.00 510.13 L 855.00 510.21 L 860.00 509.14 L 865.00 507.39 L 870.00 505.49 L 875.00 503.96 L 880.00 503.18 L 885.00 503.38 L 890.00 504.55 L 895.00 506.46 L 900.00 508.71 L 905.00 510.77 L 910.00 512.11 L 915.00 512.26 L 920.00 510.90" fill="none" stroke="#10b981" stroke-width="1.5" opacity="0.8" />
      <!-- Vertical Depth Ruler & Horizontal Reference Grid -->
      <line x1="80" y1="184" x2="920" y2="184" stroke="#1f293d" stroke-width="0.75"  />
      <text x="65" y="184" fill="#6c7d9c" font-size="10" font-weight="600" text-anchor="end" dx="-10" dy="3">Y=140</text>
      <line x1="80" y1="240" x2="920" y2="240" stroke="#1f293d" stroke-width="0.75"  />
      <text x="65" y="240" fill="#6c7d9c" font-size="10" font-weight="600" text-anchor="end" dx="-10" dy="3">Y=120</text>
      <line x1="80" y1="296" x2="920" y2="296" stroke="#1f293d" stroke-width="0.75"  />
      <text x="65" y="296" fill="#6c7d9c" font-size="10" font-weight="600" text-anchor="end" dx="-10" dy="3">Y=100</text>
      <line x1="80" y1="352" x2="920" y2="352" stroke="#1f293d" stroke-width="0.75"  />
      <text x="65" y="352" fill="#6c7d9c" font-size="10" font-weight="600" text-anchor="end" dx="-10" dy="3">Y=80</text>
      <line x1="80" y1="402.4" x2="920" y2="402.4" stroke="#00a2ff" stroke-width="1.5"  />
      <text x="65" y="402.4" fill="#6c7d9c" font-size="10" font-weight="600" text-anchor="end" dx="-10" dy="3">Y=62 (Sea)</text>
      <line x1="80" y1="450" x2="920" y2="450" stroke="#00ffff" stroke-width="1.5" stroke-dasharray="3,3" />
      <text x="65" y="450" fill="#6c7d9c" font-size="10" font-weight="600" text-anchor="end" dx="-10" dy="3">Y=45 (Conduit)</text>
      <line x1="80" y1="464" x2="920" y2="464" stroke="#10b981" stroke-width="1.0" stroke-dasharray="4,4" />
      <text x="65" y="464" fill="#6c7d9c" font-size="10" font-weight="600" text-anchor="end" dx="-10" dy="3">Y=40 (Bed max)</text>
      <line x1="80" y1="520" x2="920" y2="520" stroke="#10b981" stroke-width="1.0" stroke-dasharray="4,4" />
      <text x="65" y="520" fill="#6c7d9c" font-size="10" font-weight="600" text-anchor="end" dx="-10" dy="3">Y=20 (Bed min)</text>
      <line x1="80" y1="576" x2="920" y2="576" stroke="#1f293d" stroke-width="0.75"  />
      <text x="65" y="576" fill="#6c7d9c" font-size="10" font-weight="600" text-anchor="end" dx="-10" dy="3">Y=0</text>
      <line x1="80" y1="632" x2="920" y2="632" stroke="#1f293d" stroke-width="0.75"  />
      <text x="65" y="632" fill="#6c7d9c" font-size="10" font-weight="600" text-anchor="end" dx="-10" dy="3">Y=-20</text>
      <line x1="80" y1="688" x2="920" y2="688" stroke="#1f293d" stroke-width="0.75"  />
      <text x="65" y="688" fill="#6c7d9c" font-size="10" font-weight="600" text-anchor="end" dx="-10" dy="3">Y=-40</text>
      <line x1="80" y1="744" x2="920" y2="744" stroke="#1f293d" stroke-width="0.75"  />
      <text x="65" y="744" fill="#6c7d9c" font-size="10" font-weight="600" text-anchor="end" dx="-10" dy="3">Y=-60</text>
      <!-- Coverage Circles and Overlap Area -->
      <g clip-path="url(#panel-clip-1)">
        <!-- Overlap area -->
        <path d="M 500.00 253.49 A 268.80 268.80 0 0 1 500.00 646.51 A 268.80 268.80 0 0 1 500.00 253.49" fill="url(#overlap-grad)" stroke="#ff00ff" stroke-width="2" filter="url(#glow-magenta)" />
        
        <!-- Left Circle -->
        <circle cx="316.60" cy="450.00" r="268.80" fill="none" stroke="#00ffff" stroke-width="1.5" stroke-opacity="0.65" />
        <circle cx="316.60" cy="450.00" r="268.80" fill="none" stroke="#00ffff" stroke-width="1.0" stroke-opacity="0.3" stroke-dasharray="5 5" />
        
        <!-- Right Circle -->
        <circle cx="683.40" cy="450.00" r="268.80" fill="none" stroke="#00ffff" stroke-width="1.5" stroke-opacity="0.65" />
        <circle cx="683.40" cy="450.00" r="268.80" fill="none" stroke="#00ffff" stroke-width="1.0" stroke-opacity="0.3" stroke-dasharray="5 5" />
      </g>
      <!-- Conduit Core Nodes -->
      <g filter="url(#glow-conduit)">
        <circle cx="316.60" cy="450.00" r="8" fill="#ffffff" />
        <circle cx="316.60" cy="450.00" r="4" fill="#00ffff" />
        <circle cx="683.40" cy="450.00" r="8" fill="#ffffff" />
        <circle cx="683.40" cy="450.00" r="4" fill="#00ffff" />
      </g>
      <!-- Horizontal distance line between conduits -->
      <line x1="316.60" y1="450.00" x2="683.40" y2="450.00" stroke="#00ffff" stroke-width="1.5" stroke-dasharray="2,2" opacity="0.7" />
      <rect x="500.00" y="450.00" width="100" height="20" rx="4" fill="#0d1321" stroke="#00e5ff" stroke-width="1" transform="translate(-50, -10)" />
      <text x="500.00" y="450.00" fill="#00ffff" font-size="10" font-weight="700" text-anchor="middle" dy="4">D = 131.00m</text>

      <!-- Intersection Marks and Labels -->
      <!-- Upper Intersection -->
      <g>
        <line x1="80.00" y1="253.49" x2="920.00" y2="253.49" stroke="#ff00ff" stroke-width="1.25" stroke-dasharray="3,3" />
        <circle cx="500.00" cy="253.49" r="5" fill="#ffffff" stroke="#ff00ff" stroke-width="2" filter="url(#glow-magenta)" />
        <circle cx="500.00" cy="253.49" r="2" fill="#ff00ff" />
        
        <!-- Label bubble -->
        <rect x="500.00" y="253.49" width="95" height="24" rx="4" fill="#180e22" stroke="#ff00ff" stroke-width="1" transform="translate(12, -12)" />
        <text x="500.00" y="253.49" fill="#ff55ff" font-size="11" font-weight="700" text-anchor="start" dx="20" dy="4">Y = 115.18</text>
      </g>
      
      <!-- Lower Intersection -->
      <g>
        <line x1="80.00" y1="646.51" x2="920.00" y2="646.51" stroke="#ff00ff" stroke-width="1.25" stroke-dasharray="3,3" />
        <circle cx="500.00" cy="646.51" r="5" fill="#ffffff" stroke="#ff00ff" stroke-width="2" filter="url(#glow-magenta)" />
        <circle cx="500.00" cy="646.51" r="2" fill="#ff00ff" />
        
        <!-- Label bubble -->
        <rect x="500.00" y="646.51" width="95" height="24" rx="4" fill="#180e22" stroke="#ff00ff" stroke-width="1" transform="translate(12, -12)" />
        <text x="500.00" y="646.51" fill="#ff55ff" font-size="11" font-weight="700" text-anchor="start" dx="20" dy="4">Y = -25.18</text>
      </g>
    </g>

    <!-- Clip path definition for this panel -->
    <clipPath id="panel-clip-1">
      <rect x="80" y="150" width="840" height="630" rx="8" />
    </clipPath>
  </g>

  <!-- ==================== PANEL 2 ==================== -->
  <g id="panel-2">
    <!-- Panel Header -->
    <g transform="translate(1420, 115)" text-anchor="middle">
      <text font-size="18" font-weight="600" fill="#00e5ff" letter-spacing="1">DIAGONAL SLICE (FAR COUPLING)</text>
      <text font-size="12" font-weight="300" fill="#a0aec0" dy="18">Cross section along diagonal grid line (45°) | Separation: 185.26 blocks</text>
    </g>

    <!-- Panel Border / Clipping Area Container -->
    <g>
      <!-- Panel Background Mask / Base Grid Area -->
      <rect x="1000" y="150" width="840" height="630" fill="#0d1321" rx="8" stroke="#1d263b" stroke-width="1.5" />
      
      <!-- Subtle internal vertical grid lines for depth/scale -->
      <line x1="1420" y1="150" x2="1420" y2="780" stroke="#161f33" stroke-width="1" />
      <line x1="1210" y1="150" x2="1210" y2="780" stroke="#161f33" stroke-width="1" />
      <line x1="1630" y1="150" x2="1630" y2="780" stroke="#161f33" stroke-width="1" />

      <!-- Water Mass -->
      <path d="M 1000.00 402.40 L 1840.00 402.40 L 1840.00 510.90 L 1835.00 512.26 L 1830.00 512.11 L 1825.00 510.77 L 1820.00 508.71 L 1815.00 506.46 L 1810.00 504.55 L 1805.00 503.38 L 1800.00 503.18 L 1795.00 503.96 L 1790.00 505.49 L 1785.00 507.39 L 1780.00 509.14 L 1775.00 510.21 L 1770.00 510.13 L 1765.00 508.60 L 1760.00 505.50 L 1755.00 500.97 L 1750.00 495.37 L 1745.00 489.22 L 1740.00 483.14 L 1735.00 477.73 L 1730.00 473.52 L 1725.00 470.84 L 1720.00 469.82 L 1715.00 470.33 L 1710.00 472.04 L 1705.00 474.48 L 1700.00 477.08 L 1695.00 479.34 L 1690.00 480.84 L 1685.00 481.37 L 1680.00 480.91 L 1675.00 479.70 L 1670.00 478.12 L 1665.00 476.68 L 1660.00 475.91 L 1655.00 476.26 L 1650.00 478.04 L 1645.00 481.32 L 1640.00 485.97 L 1635.00 491.61 L 1630.00 497.72 L 1625.00 503.67 L 1620.00 508.87 L 1615.00 512.80 L 1610.00 515.14 L 1605.00 515.79 L 1600.00 514.89 L 1595.00 512.77 L 1590.00 509.95 L 1585.00 506.97 L 1580.00 504.36 L 1575.00 502.53 L 1570.00 501.69 L 1565.00 501.85 L 1560.00 502.77 L 1555.00 504.07 L 1550.00 505.24 L 1545.00 505.76 L 1540.00 505.17 L 1535.00 503.21 L 1530.00 499.80 L 1525.00 495.09 L 1520.00 489.46 L 1515.00 483.45 L 1510.00 477.68 L 1505.00 472.75 L 1500.00 469.15 L 1495.00 467.18 L 1490.00 466.94 L 1485.00 468.27 L 1480.00 470.80 L 1475.00 474.02 L 1470.00 477.38 L 1465.00 480.33 L 1460.00 482.48 L 1455.00 483.61 L 1450.00 483.73 L 1445.00 483.06 L 1440.00 482.00 L 1435.00 481.06 L 1430.00 480.75 L 1425.00 481.51 L 1420.00 483.60 L 1415.00 487.09 L 1410.00 491.80 L 1405.00 497.35 L 1400.00 503.21 L 1395.00 508.74 L 1390.00 513.36 L 1385.00 516.60 L 1380.00 518.15 L 1375.00 517.95 L 1370.00 516.18 L 1365.00 513.22 L 1360.00 509.60 L 1355.00 505.87 L 1350.00 502.59 L 1345.00 500.14 L 1340.00 498.75 L 1335.00 498.39 L 1330.00 498.84 L 1325.00 499.70 L 1320.00 500.46 L 1315.00 500.62 L 1310.00 499.75 L 1305.00 497.58 L 1300.00 494.08 L 1295.00 489.42 L 1290.00 484.00 L 1285.00 478.36 L 1280.00 473.11 L 1275.00 468.84 L 1270.00 466.01 L 1265.00 464.90 L 1260.00 465.55 L 1255.00 467.77 L 1250.00 471.16 L 1245.00 475.18 L 1240.00 479.26 L 1235.00 482.86 L 1230.00 485.57 L 1225.00 487.20 L 1220.00 487.75 L 1215.00 487.47 L 1210.00 486.77 L 1205.00 486.13 L 1200.00 486.07 L 1195.00 487.00 L 1190.00 489.18 L 1185.00 492.64 L 1180.00 497.19 L 1175.00 502.43 L 1170.00 507.82 L 1165.00 512.74 L 1160.00 516.62 L 1155.00 519.01 L 1150.00 519.66 L 1145.00 518.54 L 1140.00 515.87 L 1135.00 512.05 L 1130.00 507.65 L 1125.00 503.23 L 1120.00 499.36 L 1115.00 496.41 L 1110.00 494.60 L 1105.00 493.89 L 1100.00 494.04 L 1095.00 494.66 L 1090.00 495.22 L 1085.00 495.24 L 1080.00 494.31 L 1075.00 492.17 L 1070.00 488.80 L 1065.00 484.42 L 1060.00 479.40 L 1055.00 474.32 L 1050.00 469.76 L 1045.00 466.30 L 1040.00 464.36 L 1035.00 464.18 L 1030.00 465.77 L 1025.00 468.90 L 1020.00 473.12 L 1015.00 477.89 L 1010.00 482.61 L 1005.00 486.73 L 1000.00 489.87 Z" fill="url(#water-grad)" />

      <!-- Ground Mass -->
      <path d="M 1000.00 489.87 L 1005.00 486.73 L 1010.00 482.61 L 1015.00 477.89 L 1020.00 473.12 L 1025.00 468.90 L 1030.00 465.77 L 1035.00 464.18 L 1040.00 464.36 L 1045.00 466.30 L 1050.00 469.76 L 1055.00 474.32 L 1060.00 479.40 L 1065.00 484.42 L 1070.00 488.80 L 1075.00 492.17 L 1080.00 494.31 L 1085.00 495.24 L 1090.00 495.22 L 1095.00 494.66 L 1100.00 494.04 L 1105.00 493.89 L 1110.00 494.60 L 1115.00 496.41 L 1120.00 499.36 L 1125.00 503.23 L 1130.00 507.65 L 1135.00 512.05 L 1140.00 515.87 L 1145.00 518.54 L 1150.00 519.66 L 1155.00 519.01 L 1160.00 516.62 L 1165.00 512.74 L 1170.00 507.82 L 1175.00 502.43 L 1180.00 497.19 L 1185.00 492.64 L 1190.00 489.18 L 1195.00 487.00 L 1200.00 486.07 L 1205.00 486.13 L 1210.00 486.77 L 1215.00 487.47 L 1220.00 487.75 L 1225.00 487.20 L 1230.00 485.57 L 1235.00 482.86 L 1240.00 479.26 L 1245.00 475.18 L 1250.00 471.16 L 1255.00 467.77 L 1260.00 465.55 L 1265.00 464.90 L 1270.00 466.01 L 1275.00 468.84 L 1280.00 473.11 L 1285.00 478.36 L 1290.00 484.00 L 1295.00 489.42 L 1300.00 494.08 L 1305.00 497.58 L 1310.00 499.75 L 1315.00 500.62 L 1320.00 500.46 L 1325.00 499.70 L 1330.00 498.84 L 1335.00 498.39 L 1340.00 498.75 L 1345.00 500.14 L 1350.00 502.59 L 1355.00 505.87 L 1360.00 509.60 L 1365.00 513.22 L 1370.00 516.18 L 1375.00 517.95 L 1380.00 518.15 L 1385.00 516.60 L 1390.00 513.36 L 1395.00 508.74 L 1400.00 503.21 L 1405.00 497.35 L 1410.00 491.80 L 1415.00 487.09 L 1420.00 483.60 L 1425.00 481.51 L 1430.00 480.75 L 1435.00 481.06 L 1440.00 482.00 L 1445.00 483.06 L 1450.00 483.73 L 1455.00 483.61 L 1460.00 482.48 L 1465.00 480.33 L 1470.00 477.38 L 1475.00 474.02 L 1480.00 470.80 L 1485.00 468.27 L 1490.00 466.94 L 1495.00 467.18 L 1500.00 469.15 L 1505.00 472.75 L 1510.00 477.68 L 1515.00 483.45 L 1520.00 489.46 L 1525.00 495.09 L 1530.00 499.80 L 1535.00 503.21 L 1540.00 505.17 L 1545.00 505.76 L 1550.00 505.24 L 1555.00 504.07 L 1560.00 502.77 L 1565.00 501.85 L 1570.00 501.69 L 1575.00 502.53 L 1580.00 504.36 L 1585.00 506.97 L 1590.00 509.95 L 1595.00 512.77 L 1600.00 514.89 L 1605.00 515.79 L 1610.00 515.14 L 1615.00 512.80 L 1620.00 508.87 L 1625.00 503.67 L 1630.00 497.72 L 1635.00 491.61 L 1640.00 485.97 L 1645.00 481.32 L 1650.00 478.04 L 1655.00 476.26 L 1660.00 475.91 L 1665.00 476.68 L 1670.00 478.12 L 1675.00 479.70 L 1680.00 480.91 L 1685.00 481.37 L 1690.00 480.84 L 1695.00 479.34 L 1700.00 477.08 L 1705.00 474.48 L 1710.00 472.04 L 1715.00 470.33 L 1720.00 469.82 L 1725.00 470.84 L 1730.00 473.52 L 1735.00 477.73 L 1740.00 483.14 L 1745.00 489.22 L 1750.00 495.37 L 1755.00 500.97 L 1760.00 505.50 L 1765.00 508.60 L 1770.00 510.13 L 1775.00 510.21 L 1780.00 509.14 L 1785.00 507.39 L 1790.00 505.49 L 1795.00 503.96 L 1800.00 503.18 L 1805.00 503.38 L 1810.00 504.55 L 1815.00 506.46 L 1820.00 508.71 L 1825.00 510.77 L 1830.00 512.11 L 1835.00 512.26 L 1840.00 510.90 L 1840.00 780.00 L 1000.00 780.00 Z" fill="url(#ground-grad)" />
      
      <!-- Seafloor Line -->
      <path d="M 1000.00 489.87 L 1005.00 486.73 L 1010.00 482.61 L 1015.00 477.89 L 1020.00 473.12 L 1025.00 468.90 L 1030.00 465.77 L 1035.00 464.18 L 1040.00 464.36 L 1045.00 466.30 L 1050.00 469.76 L 1055.00 474.32 L 1060.00 479.40 L 1065.00 484.42 L 1070.00 488.80 L 1075.00 492.17 L 1080.00 494.31 L 1085.00 495.24 L 1090.00 495.22 L 1095.00 494.66 L 1100.00 494.04 L 1105.00 493.89 L 1110.00 494.60 L 1115.00 496.41 L 1120.00 499.36 L 1125.00 503.23 L 1130.00 507.65 L 1135.00 512.05 L 1140.00 515.87 L 1145.00 518.54 L 1150.00 519.66 L 1155.00 519.01 L 1160.00 516.62 L 1165.00 512.74 L 1170.00 507.82 L 1175.00 502.43 L 1180.00 497.19 L 1185.00 492.64 L 1190.00 489.18 L 1195.00 487.00 L 1200.00 486.07 L 1205.00 486.13 L 1210.00 486.77 L 1215.00 487.47 L 1220.00 487.75 L 1225.00 487.20 L 1230.00 485.57 L 1235.00 482.86 L 1240.00 479.26 L 1245.00 475.18 L 1250.00 471.16 L 1255.00 467.77 L 1260.00 465.55 L 1265.00 464.90 L 1270.00 466.01 L 1275.00 468.84 L 1280.00 473.11 L 1285.00 478.36 L 1290.00 484.00 L 1295.00 489.42 L 1300.00 494.08 L 1305.00 497.58 L 1310.00 499.75 L 1315.00 500.62 L 1320.00 500.46 L 1325.00 499.70 L 1330.00 498.84 L 1335.00 498.39 L 1340.00 498.75 L 1345.00 500.14 L 1350.00 502.59 L 1355.00 505.87 L 1360.00 509.60 L 1365.00 513.22 L 1370.00 516.18 L 1375.00 517.95 L 1380.00 518.15 L 1385.00 516.60 L 1390.00 513.36 L 1395.00 508.74 L 1400.00 503.21 L 1405.00 497.35 L 1410.00 491.80 L 1415.00 487.09 L 1420.00 483.60 L 1425.00 481.51 L 1430.00 480.75 L 1435.00 481.06 L 1440.00 482.00 L 1445.00 483.06 L 1450.00 483.73 L 1455.00 483.61 L 1460.00 482.48 L 1465.00 480.33 L 1470.00 477.38 L 1475.00 474.02 L 1480.00 470.80 L 1485.00 468.27 L 1490.00 466.94 L 1495.00 467.18 L 1500.00 469.15 L 1505.00 472.75 L 1510.00 477.68 L 1515.00 483.45 L 1520.00 489.46 L 1525.00 495.09 L 1530.00 499.80 L 1535.00 503.21 L 1540.00 505.17 L 1545.00 505.76 L 1550.00 505.24 L 1555.00 504.07 L 1560.00 502.77 L 1565.00 501.85 L 1570.00 501.69 L 1575.00 502.53 L 1580.00 504.36 L 1585.00 506.97 L 1590.00 509.95 L 1595.00 512.77 L 1600.00 514.89 L 1605.00 515.79 L 1610.00 515.14 L 1615.00 512.80 L 1620.00 508.87 L 1625.00 503.67 L 1630.00 497.72 L 1635.00 491.61 L 1640.00 485.97 L 1645.00 481.32 L 1650.00 478.04 L 1655.00 476.26 L 1660.00 475.91 L 1665.00 476.68 L 1670.00 478.12 L 1675.00 479.70 L 1680.00 480.91 L 1685.00 481.37 L 1690.00 480.84 L 1695.00 479.34 L 1700.00 477.08 L 1705.00 474.48 L 1710.00 472.04 L 1715.00 470.33 L 1720.00 469.82 L 1725.00 470.84 L 1730.00 473.52 L 1735.00 477.73 L 1740.00 483.14 L 1745.00 489.22 L 1750.00 495.37 L 1755.00 500.97 L 1760.00 505.50 L 1765.00 508.60 L 1770.00 510.13 L 1775.00 510.21 L 1780.00 509.14 L 1785.00 507.39 L 1790.00 505.49 L 1795.00 503.96 L 1800.00 503.18 L 1805.00 503.38 L 1810.00 504.55 L 1815.00 506.46 L 1820.00 508.71 L 1825.00 510.77 L 1830.00 512.11 L 1835.00 512.26 L 1840.00 510.90" fill="none" stroke="#2c3e50" stroke-width="3" />
      <path d="M 1000.00 489.87 L 1005.00 486.73 L 1010.00 482.61 L 1015.00 477.89 L 1020.00 473.12 L 1025.00 468.90 L 1030.00 465.77 L 1035.00 464.18 L 1040.00 464.36 L 1045.00 466.30 L 1050.00 469.76 L 1055.00 474.32 L 1060.00 479.40 L 1065.00 484.42 L 1070.00 488.80 L 1075.00 492.17 L 1080.00 494.31 L 1085.00 495.24 L 1090.00 495.22 L 1095.00 494.66 L 1100.00 494.04 L 1105.00 493.89 L 1110.00 494.60 L 1115.00 496.41 L 1120.00 499.36 L 1125.00 503.23 L 1130.00 507.65 L 1135.00 512.05 L 1140.00 515.87 L 1145.00 518.54 L 1150.00 519.66 L 1155.00 519.01 L 1160.00 516.62 L 1165.00 512.74 L 1170.00 507.82 L 1175.00 502.43 L 1180.00 497.19 L 1185.00 492.64 L 1190.00 489.18 L 1195.00 487.00 L 1200.00 486.07 L 1205.00 486.13 L 1210.00 486.77 L 1215.00 487.47 L 1220.00 487.75 L 1225.00 487.20 L 1230.00 485.57 L 1235.00 482.86 L 1240.00 479.26 L 1245.00 475.18 L 1250.00 471.16 L 1255.00 467.77 L 1260.00 465.55 L 1265.00 464.90 L 1270.00 466.01 L 1275.00 468.84 L 1280.00 473.11 L 1285.00 478.36 L 1290.00 484.00 L 1295.00 489.42 L 1300.00 494.08 L 1305.00 497.58 L 1310.00 499.75 L 1315.00 500.62 L 1320.00 500.46 L 1325.00 499.70 L 1330.00 498.84 L 1335.00 498.39 L 1340.00 498.75 L 1345.00 500.14 L 1350.00 502.59 L 1355.00 505.87 L 1360.00 509.60 L 1365.00 513.22 L 1370.00 516.18 L 1375.00 517.95 L 1380.00 518.15 L 1385.00 516.60 L 1390.00 513.36 L 1395.00 508.74 L 1400.00 503.21 L 1405.00 497.35 L 1410.00 491.80 L 1415.00 487.09 L 1420.00 483.60 L 1425.00 481.51 L 1430.00 480.75 L 1435.00 481.06 L 1440.00 482.00 L 1445.00 483.06 L 1450.00 483.73 L 1455.00 483.61 L 1460.00 482.48 L 1465.00 480.33 L 1470.00 477.38 L 1475.00 474.02 L 1480.00 470.80 L 1485.00 468.27 L 1490.00 466.94 L 1495.00 467.18 L 1500.00 469.15 L 1505.00 472.75 L 1510.00 477.68 L 1515.00 483.45 L 1520.00 489.46 L 1525.00 495.09 L 1530.00 499.80 L 1535.00 503.21 L 1540.00 505.17 L 1545.00 505.76 L 1550.00 505.24 L 1555.00 504.07 L 1560.00 502.77 L 1565.00 501.85 L 1570.00 501.69 L 1575.00 502.53 L 1580.00 504.36 L 1585.00 506.97 L 1590.00 509.95 L 1595.00 512.77 L 1600.00 514.89 L 1605.00 515.79 L 1610.00 515.14 L 1615.00 512.80 L 1620.00 508.87 L 1625.00 503.67 L 1630.00 497.72 L 1635.00 491.61 L 1640.00 485.97 L 1645.00 481.32 L 1650.00 478.04 L 1655.00 476.26 L 1660.00 475.91 L 1665.00 476.68 L 1670.00 478.12 L 1675.00 479.70 L 1680.00 480.91 L 1685.00 481.37 L 1690.00 480.84 L 1695.00 479.34 L 1700.00 477.08 L 1705.00 474.48 L 1710.00 472.04 L 1715.00 470.33 L 1720.00 469.82 L 1725.00 470.84 L 1730.00 473.52 L 1735.00 477.73 L 1740.00 483.14 L 1745.00 489.22 L 1750.00 495.37 L 1755.00 500.97 L 1760.00 505.50 L 1765.00 508.60 L 1770.00 510.13 L 1775.00 510.21 L 1780.00 509.14 L 1785.00 507.39 L 1790.00 505.49 L 1795.00 503.96 L 1800.00 503.18 L 1805.00 503.38 L 1810.00 504.55 L 1815.00 506.46 L 1820.00 508.71 L 1825.00 510.77 L 1830.00 512.11 L 1835.00 512.26 L 1840.00 510.90" fill="none" stroke="#10b981" stroke-width="1.5" opacity="0.8" />
      <!-- Vertical Depth Ruler & Horizontal Reference Grid -->
      <line x1="1000" y1="184" x2="1840" y2="184" stroke="#1f293d" stroke-width="0.75"  />
      <text x="985" y="184" fill="#6c7d9c" font-size="10" font-weight="600" text-anchor="end" dx="-10" dy="3">Y=140</text>
      <line x1="1000" y1="240" x2="1840" y2="240" stroke="#1f293d" stroke-width="0.75"  />
      <text x="985" y="240" fill="#6c7d9c" font-size="10" font-weight="600" text-anchor="end" dx="-10" dy="3">Y=120</text>
      <line x1="1000" y1="296" x2="1840" y2="296" stroke="#1f293d" stroke-width="0.75"  />
      <text x="985" y="296" fill="#6c7d9c" font-size="10" font-weight="600" text-anchor="end" dx="-10" dy="3">Y=100</text>
      <line x1="1000" y1="352" x2="1840" y2="352" stroke="#1f293d" stroke-width="0.75"  />
      <text x="985" y="352" fill="#6c7d9c" font-size="10" font-weight="600" text-anchor="end" dx="-10" dy="3">Y=80</text>
      <line x1="1000" y1="402.4" x2="1840" y2="402.4" stroke="#00a2ff" stroke-width="1.5"  />
      <text x="985" y="402.4" fill="#6c7d9c" font-size="10" font-weight="600" text-anchor="end" dx="-10" dy="3">Y=62 (Sea)</text>
      <line x1="1000" y1="450" x2="1840" y2="450" stroke="#00ffff" stroke-width="1.5" stroke-dasharray="3,3" />
      <text x="985" y="450" fill="#6c7d9c" font-size="10" font-weight="600" text-anchor="end" dx="-10" dy="3">Y=45 (Conduit)</text>
      <line x1="1000" y1="464" x2="1840" y2="464" stroke="#10b981" stroke-width="1.0" stroke-dasharray="4,4" />
      <text x="985" y="464" fill="#6c7d9c" font-size="10" font-weight="600" text-anchor="end" dx="-10" dy="3">Y=40 (Bed max)</text>
      <line x1="1000" y1="520" x2="1840" y2="520" stroke="#10b981" stroke-width="1.0" stroke-dasharray="4,4" />
      <text x="985" y="520" fill="#6c7d9c" font-size="10" font-weight="600" text-anchor="end" dx="-10" dy="3">Y=20 (Bed min)</text>
      <line x1="1000" y1="576" x2="1840" y2="576" stroke="#1f293d" stroke-width="0.75"  />
      <text x="985" y="576" fill="#6c7d9c" font-size="10" font-weight="600" text-anchor="end" dx="-10" dy="3">Y=0</text>
      <line x1="1000" y1="632" x2="1840" y2="632" stroke="#1f293d" stroke-width="0.75"  />
      <text x="985" y="632" fill="#6c7d9c" font-size="10" font-weight="600" text-anchor="end" dx="-10" dy="3">Y=-20</text>
      <line x1="1000" y1="688" x2="1840" y2="688" stroke="#1f293d" stroke-width="0.75"  />
      <text x="985" y="688" fill="#6c7d9c" font-size="10" font-weight="600" text-anchor="end" dx="-10" dy="3">Y=-40</text>
      <line x1="1000" y1="744" x2="1840" y2="744" stroke="#1f293d" stroke-width="0.75"  />
      <text x="985" y="744" fill="#6c7d9c" font-size="10" font-weight="600" text-anchor="end" dx="-10" dy="3">Y=-60</text>
      <!-- Coverage Circles and Overlap Area -->
      <g clip-path="url(#panel-clip-2)">
        <!-- Overlap area -->
        <path d="M 1420.00 379.41 A 268.80 268.80 0 0 1 1420.00 520.59 A 268.80 268.80 0 0 1 1420.00 379.41" fill="url(#overlap-grad)" stroke="#ff00ff" stroke-width="2" filter="url(#glow-magenta)" />
        
        <!-- Left Circle -->
        <circle cx="1160.63" cy="450.00" r="268.80" fill="none" stroke="#00ffff" stroke-width="1.5" stroke-opacity="0.65" />
        <circle cx="1160.63" cy="450.00" r="268.80" fill="none" stroke="#00ffff" stroke-width="1.0" stroke-opacity="0.3" stroke-dasharray="5 5" />
        
        <!-- Right Circle -->
        <circle cx="1679.37" cy="450.00" r="268.80" fill="none" stroke="#00ffff" stroke-width="1.5" stroke-opacity="0.65" />
        <circle cx="1679.37" cy="450.00" r="268.80" fill="none" stroke="#00ffff" stroke-width="1.0" stroke-opacity="0.3" stroke-dasharray="5 5" />
      </g>
      <!-- Conduit Core Nodes -->
      <g filter="url(#glow-conduit)">
        <circle cx="1160.63" cy="450.00" r="8" fill="#ffffff" />
        <circle cx="1160.63" cy="450.00" r="4" fill="#00ffff" />
        <circle cx="1679.37" cy="450.00" r="8" fill="#ffffff" />
        <circle cx="1679.37" cy="450.00" r="4" fill="#00ffff" />
      </g>
      <!-- Horizontal distance line between conduits -->
      <line x1="1160.63" y1="450.00" x2="1679.37" y2="450.00" stroke="#00ffff" stroke-width="1.5" stroke-dasharray="2,2" opacity="0.7" />
      <rect x="1420.00" y="450.00" width="100" height="20" rx="4" fill="#0d1321" stroke="#00e5ff" stroke-width="1" transform="translate(-50, -10)" />
      <text x="1420.00" y="450.00" fill="#00ffff" font-size="10" font-weight="700" text-anchor="middle" dy="4">D = 185.26m</text>

      <!-- Intersection Marks and Labels -->
      <!-- Upper Intersection -->
      <g>
        <line x1="1000.00" y1="379.41" x2="1840.00" y2="379.41" stroke="#ff00ff" stroke-width="1.25" stroke-dasharray="3,3" />
        <circle cx="1420.00" cy="379.41" r="5" fill="#ffffff" stroke="#ff00ff" stroke-width="2" filter="url(#glow-magenta)" />
        <circle cx="1420.00" cy="379.41" r="2" fill="#ff00ff" />
        
        <!-- Label bubble -->
        <rect x="1420.00" y="379.41" width="95" height="24" rx="4" fill="#180e22" stroke="#ff00ff" stroke-width="1" transform="translate(12, -12)" />
        <text x="1420.00" y="379.41" fill="#ff55ff" font-size="11" font-weight="700" text-anchor="start" dx="20" dy="4">Y = 70.21</text>
      </g>
      
      <!-- Lower Intersection -->
      <g>
        <line x1="1000.00" y1="520.59" x2="1840.00" y2="520.59" stroke="#ff00ff" stroke-width="1.25" stroke-dasharray="3,3" />
        <circle cx="1420.00" cy="520.59" r="5" fill="#ffffff" stroke="#ff00ff" stroke-width="2" filter="url(#glow-magenta)" />
        <circle cx="1420.00" cy="520.59" r="2" fill="#ff00ff" />
        
        <!-- Label bubble -->
        <rect x="1420.00" y="520.59" width="95" height="24" rx="4" fill="#180e22" stroke="#ff00ff" stroke-width="1" transform="translate(12, -12)" />
        <text x="1420.00" y="520.59" fill="#ff55ff" font-size="11" font-weight="700" text-anchor="start" dx="20" dy="4">Y = 19.79</text>
      </g>
    </g>

    <!-- Clip path definition for this panel -->
    <clipPath id="panel-clip-2">
      <rect x="1000" y="150" width="840" height="630" rx="8" />
    </clipPath>
  </g>

  <!-- General Legend/Metadata -->
  <g transform="translate(960, 890)" text-anchor="middle" font-size="12" fill="#6c7d9c">
    <rect x="-350" y="-20" width="700" height="35" rx="6" fill="#0d1321" stroke="#1d263b" stroke-width="1" />
    <g transform="translate(-250, 2)">
      <circle cx="0" cy="-2" r="5" fill="#00ffff" />
      <text x="12" y="2" text-anchor="start" font-weight="600">Conduit Node (Y=45)</text>
    </g>
    <g transform="translate(-70, 2)">
      <circle cx="0" cy="-2" r="5" fill="none" stroke="#00ffff" stroke-width="1.5" />
      <text x="12" y="2" text-anchor="start" font-weight="600">Coverage Boundary (R=96)</text>
    </g>
    <g transform="translate(130, 2)">
      <rect x="-6" y="-7" width="12" height="10" fill="url(#overlap-grad)" stroke="#ff00ff" stroke-width="1" />
      <text x="12" y="2" text-anchor="start" font-weight="600">Overlap Area (Intersection)</text>
    </g>
  </g>
</svg>
